<svg enable-background="new 0 0 500 500" viewBox="0 0 500 500" xmlns="http://www.w3.org/2000/svg">
	<g fill="#c42032" fill-rule="evenodd">
		<path d="m119.5 271.7c.6-1.6 6.9-25.6 7.3-27.2-9.8-14.7-20.6-62.9-12.3-102 9-57.4 69.8-85.5 127.1-85.5v-.1c71.8 0 125.6 40 125.7 108.9 0 53.9-32.4 125.1-87.8 125.1-19.8 0-44.8-9-51.4-17.8-7.6-10.2-9.4-22.7-5.4-36.1 9.8-31.3 22.3-68.9 23.8-93.9 1.4-23.6-15.4-39-37.1-39-16.4 0-37.6 9.5-48.2 36.2-8.7 22.2-8.6 45.4.6 71 3.6 10-15.8 75.2-22 96.4-15.4 52.7-36.5 119.4-32 156.6l4.3 35.7 21.8-28.6c30.2-39.6 61.5-141.9 69.8-166.8 24.6 31.9 75.9 32.8 81.9 32.8 73.4 0 156.7-72.9 154.3-174.4-2-89-67.2-163-184.2-163v.1c-111.3 0-176.2 59.4-192.1 134.5-14.6 69.6 17.8 122.6 55.9 137.1z"/>
	</g>
</svg>
