<svg enable-background="new 0 0 500 500" viewBox="0 0 500 500" xmlns="http://www.w3.org/2000/svg">
	<g fill="#c42032" fill-rule="evenodd">
		<path d="m500 94.1c-18.6 8.2-38.4 13.6-59.1 16.2 21.2-12.7 37.5-32.6 45.1-56.7-19.8 11.8-41.7 20.2-65 24.8-18.8-20-45.6-32.4-74.9-32.4-56.8 0-102.4 46.1-102.4 102.5 0 8.1.7 15.9 2.4 23.4-85.2-4.2-160.6-45-211.3-107.2-8.8 15.3-14 32.9-14 51.8 0 35.5 18.3 67 45.5 85.2-16.5-.3-32.6-5.1-46.3-12.6v1.1c0 49.8 35.5 91.2 82.1 100.7-8.3 2.3-17.4 3.4-26.9 3.4-6.6 0-13.2-.4-19.4-1.7 13.3 40.6 51 70.4 95.8 71.4-34.9 27.3-79.2 43.7-127.1 43.7-8.4 0-16.5-.4-24.5-1.4 45.4 29.3 99.2 46 157.3 46 188.6-.1 291.7-156.3 291.7-291.7 0-4.5-.2-8.9-.4-13.2 20.4-14.5 37.5-32.6 51.4-53.3z"/>
	</g>
</svg>
