<svg enable-background="new 0 0 500 500" viewBox="0 0 500 500" xmlns="http://www.w3.org/2000/svg">
	<g fill="#c42032" fill-rule="evenodd">
		<path d="m478.8 111.1c-13.6-24.1-28.3-28.6-58.3-30.2-29.9-2-105.2-2.9-170.4-2.9-65.3 0-140.7.8-170.6 2.8-29.9 1.7-44.7 6.1-58.3 30.3-14 24.1-21.2 65.6-21.2 138.7v.1.1.1c0 72.8 7.2 114.6 21.2 138.4 13.7 24.1 28.4 28.5 58.3 30.5 29.9 1.8 105.2 2.8 170.6 2.8 65.2 0 140.5-1 170.5-2.8 30-2 44.7-6.4 58.2-30.5 14.1-23.8 21.2-65.7 21.2-138.4 0 0 0-.1 0-.2v-.1c0-73.1-7.1-114.6-21.2-138.7zm-291.3 232.5v-187.5l156.2 93.8z"/>
	</g>
</svg>
