<svg enable-background="new 0 0 500 500" viewBox="0 0 500 500" xmlns="http://www.w3.org/2000/svg">
	<g fill="#c42032" fill-rule="evenodd">
		<path d="m453.6 109.8c-52.5 0-95.2-42.7-95.2-95.2 0-8.1-6.6-14.6-14.6-14.6h-78.5c-8.1 0-14.6 6.6-14.6 14.6v321.6c0 30.9-25.1 56-56 56s-56-25.1-56-56 25.1-56 56-56c8.1 0 14.6-6.6 14.6-14.6v-78.5c0-8.1-6.6-14.6-14.6-14.6-90.3.1-163.7 73.5-163.7 163.8s73.4 163.7 163.7 163.7 163.7-73.4 163.7-163.7v-142.4c29.2 15.5 61.6 23.7 95.2 23.7 8.1 0 14.6-6.6 14.6-14.6v-78.5c0-8.1-6.5-14.7-14.6-14.7z"/>
	</g>
</svg>
