<svg enable-background="new 0 0 500 500" viewBox="0 0 500 500" xmlns="http://www.w3.org/2000/svg">
	<g fill="#c42032" fill-rule="evenodd">
		<path d="m254.9 500c-1.7 0-3.3 0-5 0-39.2.1-75.4-.9-110.6-3-32.3-2-61.8-13.1-85.2-32.3-22.7-18.5-38.1-43.4-46-74.2-6.8-26.8-7.2-53.1-7.5-78.5-.3-18.3-.5-40-.6-62 .1-22.1.3-43.7.6-62 .3-25.4.7-51.7 7.5-78.5 7.9-30.8 23.3-55.8 46-74.2 23.5-19.1 52.9-30.3 85.2-32.2 35.2-2.1 71.4-3.1 110.7-3 39.2-.1 75.4.9 110.6 3 32.3 2 61.8 13.1 85.2 32.3 22.7 18.5 38.1 43.4 46 74.2 6.8 26.8 7.2 53.1 7.5 78.5.3 18.3.5 39.9.6 61.9v.1c0 22-.3 43.6-.6 61.9-.3 25.4-.7 51.7-7.5 78.5-7.9 30.8-23.3 55.8-46 74.2-23.5 19.1-53 30.3-85.2 32.3-33.7 2-68.3 3-105.7 3zm-4.9-39.1c38.6.1 74-.9 108.3-3 24.4-1.5 45.6-9.4 62.9-23.5 16-13.1 27.1-31.1 32.8-53.6 5.7-22.3 6-46.3 6.3-69.4.2-18.1.5-39.6.6-61.4-.1-21.8-.3-43.3-.6-61.4-.3-23.2-.6-47.1-6.3-69.4-5.7-22.5-16.8-40.5-32.8-53.6-17.3-14.1-38.5-22.1-62.9-23.5-34.4-2.1-69.8-3.1-108.3-3-38.5-.1-74 .9-108.3 3-24.4 1.5-45.6 9.4-62.9 23.5-16 13.1-27.1 31.1-32.8 53.6-5.7 22.3-6 46.3-6.3 69.4-.2 18.1-.5 39.6-.6 61.4.1 21.7.3 43.2.6 61.3.3 23.2.6 47.1 6.3 69.4 5.7 22.5 16.8 40.5 32.8 53.6 17.3 14.1 38.5 22.1 62.9 23.5 34.4 2.2 69.8 3.2 108.3 3.1zm-1-88.8c-67.3 0-122.1-54.8-122.1-122.1s54.8-122.1 122.1-122.1 122.1 54.8 122.1 122.1-54.8 122.1-122.1 122.1zm0-205.1c-45.8 0-83 37.2-83 83s37.2 83 83 83 83-37.2 83-83-37.2-83-83-83zm135.8-78.1c-16.2 0-29.3 13.1-29.3 29.3s13.1 29.3 29.3 29.3 29.3-13.1 29.3-29.3-13.1-29.3-29.3-29.3z"/>
	</g>
</svg>
